<mxfile host="app.diagrams.net" agent="Mozilla/5.0 (Windows NT 10.0; Win64; x64) AppleWebKit/537.36 (KHTML, like Gecko) Chrome/134.0.0.0 Safari/537.36" version="26.1.3">
  <diagram name="第 1 页" id="PduAg0AREe6uGQokyNW8">
    <mxGraphModel dx="1889" dy="630" grid="1" gridSize="10" guides="1" tooltips="1" connect="1" arrows="1" fold="1" page="1" pageScale="1" pageWidth="827" pageHeight="1169" math="0" shadow="0">
      <root>
        <mxCell id="0" />
        <mxCell id="1" parent="0" />
        <mxCell id="JB8tI0yH94NH3VG3KQCO-1" value="文件类型" style="rounded=0;whiteSpace=wrap;html=1;fontSize=16;" parent="1" vertex="1">
          <mxGeometry x="140" y="290" width="120" height="60" as="geometry" />
        </mxCell>
        <mxCell id="JB8tI0yH94NH3VG3KQCO-2" value="类型id" style="ellipse;whiteSpace=wrap;html=1;align=center;dashed=1;fontSize=16;" parent="1" vertex="1">
          <mxGeometry x="-20" y="250" width="100" height="40" as="geometry" />
        </mxCell>
        <mxCell id="JB8tI0yH94NH3VG3KQCO-3" value="中文名" style="ellipse;whiteSpace=wrap;html=1;align=center;dashed=1;fontSize=16;" parent="1" vertex="1">
          <mxGeometry x="-20" y="340" width="100" height="40" as="geometry" />
        </mxCell>
        <mxCell id="JB8tI0yH94NH3VG3KQCO-6" value="&#xa;&lt;span style=&quot;color: rgba(0, 0, 0, 0); font-family: monospace; font-style: normal; font-variant-ligatures: normal; font-variant-caps: normal; font-weight: 400; letter-spacing: normal; orphans: 2; text-align: start; text-indent: 0px; text-transform: none; widows: 2; word-spacing: 0px; -webkit-text-stroke-width: 0px; white-space: nowrap; background-color: rgb(251, 251, 251); text-decoration-thickness: initial; text-decoration-style: initial; text-decoration-color: initial; float: none; display: inline !important;&quot;&gt;&amp;nbsp;&lt;/span&gt;&#xa;&#xa;" style="html=1;verticalAlign=bottom;endArrow=block;curved=0;rounded=0;entryX=1;entryY=0.5;entryDx=0;entryDy=0;exitX=0;exitY=0.25;exitDx=0;exitDy=0;fontSize=16;" parent="1" source="JB8tI0yH94NH3VG3KQCO-1" target="JB8tI0yH94NH3VG3KQCO-2" edge="1">
          <mxGeometry width="80" relative="1" as="geometry">
            <mxPoint x="130" y="260" as="sourcePoint" />
            <mxPoint x="210" y="260" as="targetPoint" />
          </mxGeometry>
        </mxCell>
        <mxCell id="JB8tI0yH94NH3VG3KQCO-7" value="" style="html=1;verticalAlign=bottom;endArrow=block;curved=0;rounded=0;exitX=-0.011;exitY=0.65;exitDx=0;exitDy=0;exitPerimeter=0;entryX=1;entryY=0.5;entryDx=0;entryDy=0;fontSize=16;" parent="1" source="JB8tI0yH94NH3VG3KQCO-1" target="JB8tI0yH94NH3VG3KQCO-3" edge="1">
          <mxGeometry width="80" relative="1" as="geometry">
            <mxPoint x="110" y="400" as="sourcePoint" />
            <mxPoint x="190" y="400" as="targetPoint" />
          </mxGeometry>
        </mxCell>
        <mxCell id="JB8tI0yH94NH3VG3KQCO-9" value="文件后缀" style="rounded=0;whiteSpace=wrap;html=1;fontSize=16;" parent="1" vertex="1">
          <mxGeometry x="140" y="540" width="120" height="60" as="geometry" />
        </mxCell>
        <mxCell id="JB8tI0yH94NH3VG3KQCO-10" value="类型id" style="ellipse;whiteSpace=wrap;html=1;align=center;dashed=1;fontSize=16;" parent="1" vertex="1">
          <mxGeometry x="-20" y="490" width="100" height="40" as="geometry" />
        </mxCell>
        <mxCell id="JB8tI0yH94NH3VG3KQCO-11" value="后缀" style="ellipse;whiteSpace=wrap;html=1;align=center;dashed=1;fontSize=16;" parent="1" vertex="1">
          <mxGeometry x="-20" y="600" width="100" height="40" as="geometry" />
        </mxCell>
        <mxCell id="JB8tI0yH94NH3VG3KQCO-12" value="" style="html=1;verticalAlign=bottom;endArrow=block;curved=0;rounded=0;entryX=1;entryY=0.5;entryDx=0;entryDy=0;exitX=-0.006;exitY=0.394;exitDx=0;exitDy=0;exitPerimeter=0;fontSize=16;" parent="1" source="JB8tI0yH94NH3VG3KQCO-9" target="JB8tI0yH94NH3VG3KQCO-10" edge="1">
          <mxGeometry width="80" relative="1" as="geometry">
            <mxPoint x="140" y="500" as="sourcePoint" />
            <mxPoint x="220" y="500" as="targetPoint" />
          </mxGeometry>
        </mxCell>
        <mxCell id="JB8tI0yH94NH3VG3KQCO-13" value="" style="html=1;verticalAlign=bottom;endArrow=block;curved=0;rounded=0;entryX=1;entryY=0.5;entryDx=0;entryDy=0;exitX=0;exitY=0.75;exitDx=0;exitDy=0;fontSize=16;" parent="1" source="JB8tI0yH94NH3VG3KQCO-9" target="JB8tI0yH94NH3VG3KQCO-11" edge="1">
          <mxGeometry x="0.0077" width="80" relative="1" as="geometry">
            <mxPoint x="120" y="640" as="sourcePoint" />
            <mxPoint x="200" y="640" as="targetPoint" />
            <mxPoint as="offset" />
          </mxGeometry>
        </mxCell>
        <mxCell id="JB8tI0yH94NH3VG3KQCO-14" value="存储空间" style="rounded=0;whiteSpace=wrap;html=1;fontSize=16;" parent="1" vertex="1">
          <mxGeometry x="420" y="250" width="120" height="60" as="geometry" />
        </mxCell>
        <mxCell id="JB8tI0yH94NH3VG3KQCO-15" value="用户id" style="ellipse;whiteSpace=wrap;html=1;align=center;dashed=1;fontSize=16;" parent="1" vertex="1">
          <mxGeometry x="340" y="150" width="100" height="40" as="geometry" />
        </mxCell>
        <mxCell id="JB8tI0yH94NH3VG3KQCO-16" value="容量" style="ellipse;whiteSpace=wrap;html=1;align=center;dashed=1;fontSize=16;" parent="1" vertex="1">
          <mxGeometry x="520" y="150" width="100" height="40" as="geometry" />
        </mxCell>
        <mxCell id="JB8tI0yH94NH3VG3KQCO-17" value="" style="html=1;verticalAlign=bottom;endArrow=block;curved=0;rounded=0;entryX=0.6;entryY=1.025;entryDx=0;entryDy=0;entryPerimeter=0;exitX=0.25;exitY=0;exitDx=0;exitDy=0;fontSize=16;" parent="1" source="JB8tI0yH94NH3VG3KQCO-14" target="JB8tI0yH94NH3VG3KQCO-15" edge="1">
          <mxGeometry x="0.0086" width="80" relative="1" as="geometry">
            <mxPoint x="330" y="240" as="sourcePoint" />
            <mxPoint x="410" y="240" as="targetPoint" />
            <mxPoint as="offset" />
          </mxGeometry>
        </mxCell>
        <mxCell id="JB8tI0yH94NH3VG3KQCO-18" value="" style="html=1;verticalAlign=bottom;endArrow=block;curved=0;rounded=0;entryX=0.5;entryY=1;entryDx=0;entryDy=0;exitX=0.75;exitY=0;exitDx=0;exitDy=0;fontSize=16;" parent="1" source="JB8tI0yH94NH3VG3KQCO-14" target="JB8tI0yH94NH3VG3KQCO-16" edge="1">
          <mxGeometry width="80" relative="1" as="geometry">
            <mxPoint x="520" y="220" as="sourcePoint" />
            <mxPoint x="600" y="220" as="targetPoint" />
          </mxGeometry>
        </mxCell>
        <mxCell id="JB8tI0yH94NH3VG3KQCO-19" value="创建" style="strokeWidth=2;html=1;shape=mxgraph.flowchart.decision;whiteSpace=wrap;fontSize=16;" parent="1" vertex="1">
          <mxGeometry x="680" y="230" width="100" height="100" as="geometry" />
        </mxCell>
        <mxCell id="JB8tI0yH94NH3VG3KQCO-20" value="&#xa;&lt;span style=&quot;color: rgba(0, 0, 0, 0); font-family: monospace; font-style: normal; font-variant-ligatures: normal; font-variant-caps: normal; font-weight: 400; letter-spacing: normal; orphans: 2; text-align: start; text-indent: 0px; text-transform: none; widows: 2; word-spacing: 0px; -webkit-text-stroke-width: 0px; white-space: nowrap; background-color: rgb(251, 251, 251); text-decoration-thickness: initial; text-decoration-style: initial; text-decoration-color: initial; float: none; display: inline !important;&quot;&gt;&amp;nbsp;&lt;/span&gt;&#xa;&#xa;" style="endArrow=block;endFill=1;html=1;edgeStyle=orthogonalEdgeStyle;align=left;verticalAlign=top;rounded=0;exitX=1;exitY=0.5;exitDx=0;exitDy=0;fontSize=16;" parent="1" source="JB8tI0yH94NH3VG3KQCO-14" target="JB8tI0yH94NH3VG3KQCO-19" edge="1">
          <mxGeometry x="-1" relative="1" as="geometry">
            <mxPoint x="560" y="240" as="sourcePoint" />
            <mxPoint x="720" y="240" as="targetPoint" />
          </mxGeometry>
        </mxCell>
        <mxCell id="JB8tI0yH94NH3VG3KQCO-43" value="1" style="edgeLabel;html=1;align=center;verticalAlign=middle;resizable=0;points=[];fontSize=16;" parent="JB8tI0yH94NH3VG3KQCO-20" vertex="1" connectable="0">
          <mxGeometry x="-0.0714" y="2" relative="1" as="geometry">
            <mxPoint as="offset" />
          </mxGeometry>
        </mxCell>
        <mxCell id="JB8tI0yH94NH3VG3KQCO-41" value="" style="edgeStyle=orthogonalEdgeStyle;rounded=0;orthogonalLoop=1;jettySize=auto;html=1;fontSize=16;" parent="1" source="JB8tI0yH94NH3VG3KQCO-22" target="JB8tI0yH94NH3VG3KQCO-28" edge="1">
          <mxGeometry relative="1" as="geometry" />
        </mxCell>
        <mxCell id="JB8tI0yH94NH3VG3KQCO-22" value="账号" style="rounded=0;whiteSpace=wrap;html=1;fontSize=16;" parent="1" vertex="1">
          <mxGeometry x="880" y="250" width="120" height="60" as="geometry" />
        </mxCell>
        <mxCell id="JB8tI0yH94NH3VG3KQCO-26" value="" style="endArrow=block;endFill=1;html=1;edgeStyle=orthogonalEdgeStyle;align=left;verticalAlign=top;rounded=0;exitX=1;exitY=0.5;exitDx=0;exitDy=0;exitPerimeter=0;fontSize=16;" parent="1" source="JB8tI0yH94NH3VG3KQCO-19" target="JB8tI0yH94NH3VG3KQCO-22" edge="1">
          <mxGeometry x="-1" relative="1" as="geometry">
            <mxPoint x="760" y="380" as="sourcePoint" />
            <mxPoint x="890" y="280" as="targetPoint" />
            <Array as="points" />
          </mxGeometry>
        </mxCell>
        <mxCell id="JB8tI0yH94NH3VG3KQCO-45" value="1" style="edgeLabel;html=1;align=center;verticalAlign=middle;resizable=0;points=[];fontSize=16;" parent="JB8tI0yH94NH3VG3KQCO-26" vertex="1" connectable="0">
          <mxGeometry x="-0.14" y="-2" relative="1" as="geometry">
            <mxPoint as="offset" />
          </mxGeometry>
        </mxCell>
        <mxCell id="JB8tI0yH94NH3VG3KQCO-28" value="关联" style="rhombus;whiteSpace=wrap;html=1;fontSize=16;" parent="1" vertex="1">
          <mxGeometry x="1090" y="240" width="80" height="80" as="geometry" />
        </mxCell>
        <mxCell id="JB8tI0yH94NH3VG3KQCO-30" value="" style="endArrow=block;endFill=1;html=1;edgeStyle=orthogonalEdgeStyle;align=left;verticalAlign=top;rounded=0;exitX=1;exitY=0.5;exitDx=0;exitDy=0;fontSize=16;" parent="1" source="JB8tI0yH94NH3VG3KQCO-22" target="JB8tI0yH94NH3VG3KQCO-28" edge="1">
          <mxGeometry x="-1" relative="1" as="geometry">
            <mxPoint x="1060" y="450" as="sourcePoint" />
            <mxPoint x="1220" y="450" as="targetPoint" />
          </mxGeometry>
        </mxCell>
        <mxCell id="JB8tI0yH94NH3VG3KQCO-46" value="1" style="edgeLabel;html=1;align=center;verticalAlign=middle;resizable=0;points=[];fontSize=16;" parent="JB8tI0yH94NH3VG3KQCO-30" vertex="1" connectable="0">
          <mxGeometry x="-0.0222" y="-1" relative="1" as="geometry">
            <mxPoint as="offset" />
          </mxGeometry>
        </mxCell>
        <mxCell id="JB8tI0yH94NH3VG3KQCO-32" value="" style="endArrow=block;endFill=1;html=1;edgeStyle=orthogonalEdgeStyle;align=left;verticalAlign=top;rounded=0;entryX=0;entryY=0.5;entryDx=0;entryDy=0;fontSize=16;" parent="1" source="JB8tI0yH94NH3VG3KQCO-28" target="JB8tI0yH94NH3VG3KQCO-34" edge="1">
          <mxGeometry x="-1" relative="1" as="geometry">
            <mxPoint x="1260" y="280" as="sourcePoint" />
            <mxPoint x="1290" y="280" as="targetPoint" />
            <mxPoint as="offset" />
          </mxGeometry>
        </mxCell>
        <mxCell id="JB8tI0yH94NH3VG3KQCO-47" value="N" style="edgeLabel;html=1;align=center;verticalAlign=middle;resizable=0;points=[];fontSize=16;" parent="JB8tI0yH94NH3VG3KQCO-32" vertex="1" connectable="0">
          <mxGeometry x="-0.1026" relative="1" as="geometry">
            <mxPoint as="offset" />
          </mxGeometry>
        </mxCell>
        <mxCell id="JB8tI0yH94NH3VG3KQCO-42" value="" style="edgeStyle=orthogonalEdgeStyle;rounded=0;orthogonalLoop=1;jettySize=auto;html=1;fontSize=16;" parent="1" source="JB8tI0yH94NH3VG3KQCO-34" target="JB8tI0yH94NH3VG3KQCO-35" edge="1">
          <mxGeometry relative="1" as="geometry" />
        </mxCell>
        <mxCell id="JB8tI0yH94NH3VG3KQCO-34" value="账号_文件" style="rounded=0;whiteSpace=wrap;html=1;fontSize=16;" parent="1" vertex="1">
          <mxGeometry x="1300" y="250" width="120" height="60" as="geometry" />
        </mxCell>
        <mxCell id="JB8tI0yH94NH3VG3KQCO-35" value="关联" style="rhombus;whiteSpace=wrap;html=1;fontSize=16;" parent="1" vertex="1">
          <mxGeometry x="1530" y="240" width="80" height="80" as="geometry" />
        </mxCell>
        <mxCell id="JB8tI0yH94NH3VG3KQCO-36" value="" style="endArrow=block;endFill=1;html=1;edgeStyle=orthogonalEdgeStyle;align=left;verticalAlign=top;rounded=0;exitX=1;exitY=0.5;exitDx=0;exitDy=0;fontSize=16;" parent="1" source="JB8tI0yH94NH3VG3KQCO-34" target="JB8tI0yH94NH3VG3KQCO-35" edge="1">
          <mxGeometry x="-1" relative="1" as="geometry">
            <mxPoint x="1390" y="450" as="sourcePoint" />
            <mxPoint x="1550" y="450" as="targetPoint" />
            <mxPoint as="offset" />
          </mxGeometry>
        </mxCell>
        <mxCell id="JB8tI0yH94NH3VG3KQCO-48" value="M" style="edgeLabel;html=1;align=center;verticalAlign=middle;resizable=0;points=[];fontSize=16;" parent="JB8tI0yH94NH3VG3KQCO-36" vertex="1" connectable="0">
          <mxGeometry x="-0.1939" y="1" relative="1" as="geometry">
            <mxPoint as="offset" />
          </mxGeometry>
        </mxCell>
        <mxCell id="JB8tI0yH94NH3VG3KQCO-38" value="文件" style="rounded=0;whiteSpace=wrap;html=1;fontSize=16;" parent="1" vertex="1">
          <mxGeometry x="1510" y="440" width="120" height="60" as="geometry" />
        </mxCell>
        <mxCell id="JB8tI0yH94NH3VG3KQCO-39" value="" style="endArrow=block;endFill=1;html=1;edgeStyle=orthogonalEdgeStyle;align=left;verticalAlign=top;rounded=0;entryX=0.5;entryY=0;entryDx=0;entryDy=0;fontSize=16;" parent="1" source="JB8tI0yH94NH3VG3KQCO-35" target="JB8tI0yH94NH3VG3KQCO-38" edge="1">
          <mxGeometry x="-1" relative="1" as="geometry">
            <mxPoint x="1340" y="390" as="sourcePoint" />
            <mxPoint x="1500" y="390" as="targetPoint" />
          </mxGeometry>
        </mxCell>
        <mxCell id="JB8tI0yH94NH3VG3KQCO-49" value="1" style="edgeLabel;html=1;align=center;verticalAlign=middle;resizable=0;points=[];fontSize=16;" parent="JB8tI0yH94NH3VG3KQCO-39" vertex="1" connectable="0">
          <mxGeometry x="-0.1333" y="-1" relative="1" as="geometry">
            <mxPoint as="offset" />
          </mxGeometry>
        </mxCell>
        <mxCell id="JB8tI0yH94NH3VG3KQCO-50" value="上传" style="rhombus;whiteSpace=wrap;html=1;fontSize=16;" parent="1" vertex="1">
          <mxGeometry x="1530" y="600" width="80" height="80" as="geometry" />
        </mxCell>
        <mxCell id="JB8tI0yH94NH3VG3KQCO-51" value="" style="endArrow=block;endFill=1;html=1;edgeStyle=orthogonalEdgeStyle;align=left;verticalAlign=top;rounded=0;entryX=0.5;entryY=1;entryDx=0;entryDy=0;fontSize=16;" parent="1" source="JB8tI0yH94NH3VG3KQCO-50" target="JB8tI0yH94NH3VG3KQCO-38" edge="1">
          <mxGeometry x="-1" relative="1" as="geometry">
            <mxPoint x="1420" y="550" as="sourcePoint" />
            <mxPoint x="1580" y="550" as="targetPoint" />
          </mxGeometry>
        </mxCell>
        <mxCell id="JB8tI0yH94NH3VG3KQCO-53" value="1" style="edgeLabel;html=1;align=center;verticalAlign=middle;resizable=0;points=[];fontSize=16;" parent="JB8tI0yH94NH3VG3KQCO-51" vertex="1" connectable="0">
          <mxGeometry x="-0.02" y="-1" relative="1" as="geometry">
            <mxPoint as="offset" />
          </mxGeometry>
        </mxCell>
        <mxCell id="JB8tI0yH94NH3VG3KQCO-54" value="分片上传" style="rounded=0;whiteSpace=wrap;html=1;fontSize=16;" parent="1" vertex="1">
          <mxGeometry x="1300" y="610" width="120" height="60" as="geometry" />
        </mxCell>
        <mxCell id="JB8tI0yH94NH3VG3KQCO-55" value="" style="endArrow=block;endFill=1;html=1;edgeStyle=orthogonalEdgeStyle;align=left;verticalAlign=top;rounded=0;exitX=1;exitY=0.5;exitDx=0;exitDy=0;entryX=0;entryY=0.5;entryDx=0;entryDy=0;fontSize=16;" parent="1" source="JB8tI0yH94NH3VG3KQCO-54" target="JB8tI0yH94NH3VG3KQCO-50" edge="1">
          <mxGeometry x="-1" relative="1" as="geometry">
            <mxPoint x="1440" y="640" as="sourcePoint" />
            <mxPoint x="1600" y="640" as="targetPoint" />
          </mxGeometry>
        </mxCell>
        <mxCell id="JB8tI0yH94NH3VG3KQCO-57" value="1" style="edgeLabel;html=1;align=center;verticalAlign=middle;resizable=0;points=[];fontSize=16;" parent="JB8tI0yH94NH3VG3KQCO-55" vertex="1" connectable="0">
          <mxGeometry x="-0.103" y="3" relative="1" as="geometry">
            <mxPoint as="offset" />
          </mxGeometry>
        </mxCell>
        <mxCell id="JB8tI0yH94NH3VG3KQCO-58" value="分享" style="rhombus;whiteSpace=wrap;html=1;fontSize=16;" parent="1" vertex="1">
          <mxGeometry x="900" y="430" width="80" height="80" as="geometry" />
        </mxCell>
        <mxCell id="JB8tI0yH94NH3VG3KQCO-59" value="" style="endArrow=block;endFill=1;html=1;edgeStyle=orthogonalEdgeStyle;align=left;verticalAlign=top;rounded=0;exitX=0.5;exitY=1;exitDx=0;exitDy=0;fontSize=16;" parent="1" source="JB8tI0yH94NH3VG3KQCO-22" target="JB8tI0yH94NH3VG3KQCO-58" edge="1">
          <mxGeometry x="-1" relative="1" as="geometry">
            <mxPoint x="740" y="410" as="sourcePoint" />
            <mxPoint x="900" y="410" as="targetPoint" />
            <Array as="points">
              <mxPoint x="940" y="370" />
              <mxPoint x="940" y="370" />
            </Array>
          </mxGeometry>
        </mxCell>
        <mxCell id="JB8tI0yH94NH3VG3KQCO-61" value="1" style="edgeLabel;html=1;align=center;verticalAlign=middle;resizable=0;points=[];fontSize=16;" parent="JB8tI0yH94NH3VG3KQCO-59" vertex="1" connectable="0">
          <mxGeometry y="6" relative="1" as="geometry">
            <mxPoint x="-6" as="offset" />
          </mxGeometry>
        </mxCell>
        <mxCell id="JB8tI0yH94NH3VG3KQCO-62" value="分享主表" style="rounded=0;whiteSpace=wrap;html=1;fontSize=16;" parent="1" vertex="1">
          <mxGeometry x="661" y="440" width="120" height="60" as="geometry" />
        </mxCell>
        <mxCell id="JB8tI0yH94NH3VG3KQCO-63" value="" style="endArrow=block;endFill=1;html=1;edgeStyle=orthogonalEdgeStyle;align=left;verticalAlign=top;rounded=0;entryX=1;entryY=0.5;entryDx=0;entryDy=0;fontSize=16;" parent="1" source="JB8tI0yH94NH3VG3KQCO-58" target="JB8tI0yH94NH3VG3KQCO-62" edge="1">
          <mxGeometry x="-1" relative="1" as="geometry">
            <mxPoint x="740" y="600" as="sourcePoint" />
            <mxPoint x="900" y="600" as="targetPoint" />
          </mxGeometry>
        </mxCell>
        <mxCell id="JB8tI0yH94NH3VG3KQCO-65" value="N" style="edgeLabel;html=1;align=center;verticalAlign=middle;resizable=0;points=[];fontSize=16;" parent="JB8tI0yH94NH3VG3KQCO-63" vertex="1" connectable="0">
          <mxGeometry x="-0.2909" y="2" relative="1" as="geometry">
            <mxPoint as="offset" />
          </mxGeometry>
        </mxCell>
        <mxCell id="JB8tI0yH94NH3VG3KQCO-66" value="分享子表" style="rounded=0;whiteSpace=wrap;html=1;fontSize=16;" parent="1" vertex="1">
          <mxGeometry x="670" y="720" width="120" height="60" as="geometry" />
        </mxCell>
        <mxCell id="JB8tI0yH94NH3VG3KQCO-67" value="关联" style="rhombus;whiteSpace=wrap;html=1;fontSize=16;" parent="1" vertex="1">
          <mxGeometry x="690" y="570" width="80" height="80" as="geometry" />
        </mxCell>
        <mxCell id="JB8tI0yH94NH3VG3KQCO-68" value="" style="endArrow=block;endFill=1;html=1;edgeStyle=orthogonalEdgeStyle;align=left;verticalAlign=top;rounded=0;exitX=0.572;exitY=0.972;exitDx=0;exitDy=0;exitPerimeter=0;entryX=0.5;entryY=0;entryDx=0;entryDy=0;fontSize=16;" parent="1" source="JB8tI0yH94NH3VG3KQCO-62" target="JB8tI0yH94NH3VG3KQCO-67" edge="1">
          <mxGeometry x="-1" relative="1" as="geometry">
            <mxPoint x="540" y="550" as="sourcePoint" />
            <mxPoint x="700" y="550" as="targetPoint" />
          </mxGeometry>
        </mxCell>
        <mxCell id="JB8tI0yH94NH3VG3KQCO-70" value="1" style="edgeLabel;html=1;align=center;verticalAlign=middle;resizable=0;points=[];fontSize=16;" parent="JB8tI0yH94NH3VG3KQCO-68" vertex="1" connectable="0">
          <mxGeometry x="-0.0377" relative="1" as="geometry">
            <mxPoint as="offset" />
          </mxGeometry>
        </mxCell>
        <mxCell id="JB8tI0yH94NH3VG3KQCO-71" value="" style="endArrow=block;endFill=1;html=1;edgeStyle=orthogonalEdgeStyle;align=left;verticalAlign=top;rounded=0;exitX=0.5;exitY=1;exitDx=0;exitDy=0;entryX=0.5;entryY=0;entryDx=0;entryDy=0;fontSize=16;" parent="1" source="JB8tI0yH94NH3VG3KQCO-67" target="JB8tI0yH94NH3VG3KQCO-66" edge="1">
          <mxGeometry x="-1" relative="1" as="geometry">
            <mxPoint x="840" y="670" as="sourcePoint" />
            <mxPoint x="1000" y="670" as="targetPoint" />
            <mxPoint as="offset" />
          </mxGeometry>
        </mxCell>
        <mxCell id="JB8tI0yH94NH3VG3KQCO-74" value="N" style="edgeLabel;html=1;align=center;verticalAlign=middle;resizable=0;points=[];fontSize=16;" parent="JB8tI0yH94NH3VG3KQCO-71" vertex="1" connectable="0">
          <mxGeometry x="-0.0286" y="1" relative="1" as="geometry">
            <mxPoint as="offset" />
          </mxGeometry>
        </mxCell>
        <mxCell id="JB8tI0yH94NH3VG3KQCO-75" value="用户名" style="ellipse;whiteSpace=wrap;html=1;align=center;dashed=1;fontSize=16;" parent="1" vertex="1">
          <mxGeometry x="760" y="150" width="100" height="40" as="geometry" />
        </mxCell>
        <mxCell id="JB8tI0yH94NH3VG3KQCO-76" value="角色" style="ellipse;whiteSpace=wrap;html=1;align=center;dashed=1;fontSize=16;" parent="1" vertex="1">
          <mxGeometry x="890" y="130" width="100" height="40" as="geometry" />
        </mxCell>
        <mxCell id="JB8tI0yH94NH3VG3KQCO-77" value="密码" style="ellipse;whiteSpace=wrap;html=1;align=center;dashed=1;fontSize=16;" parent="1" vertex="1">
          <mxGeometry x="1020" y="150" width="100" height="40" as="geometry" />
        </mxCell>
        <mxCell id="JB8tI0yH94NH3VG3KQCO-78" value="" style="html=1;verticalAlign=bottom;endArrow=block;curved=0;rounded=0;entryX=0.593;entryY=1.042;entryDx=0;entryDy=0;entryPerimeter=0;exitX=0.25;exitY=0;exitDx=0;exitDy=0;fontSize=16;" parent="1" source="JB8tI0yH94NH3VG3KQCO-22" target="JB8tI0yH94NH3VG3KQCO-75" edge="1">
          <mxGeometry width="80" relative="1" as="geometry">
            <mxPoint x="850" y="220" as="sourcePoint" />
            <mxPoint x="930" y="220" as="targetPoint" />
          </mxGeometry>
        </mxCell>
        <mxCell id="JB8tI0yH94NH3VG3KQCO-79" value="" style="html=1;verticalAlign=bottom;endArrow=block;curved=0;rounded=0;entryX=0.593;entryY=1.042;entryDx=0;entryDy=0;entryPerimeter=0;exitX=0.25;exitY=0;exitDx=0;exitDy=0;fontSize=16;" parent="1" edge="1">
          <mxGeometry width="80" relative="1" as="geometry">
            <mxPoint x="910" y="250" as="sourcePoint" />
            <mxPoint x="819" y="192" as="targetPoint" />
          </mxGeometry>
        </mxCell>
        <mxCell id="JB8tI0yH94NH3VG3KQCO-80" value="" style="html=1;verticalAlign=bottom;endArrow=block;curved=0;rounded=0;entryX=0.5;entryY=1;entryDx=0;entryDy=0;exitX=0.5;exitY=0;exitDx=0;exitDy=0;fontSize=16;" parent="1" source="JB8tI0yH94NH3VG3KQCO-22" target="JB8tI0yH94NH3VG3KQCO-76" edge="1">
          <mxGeometry width="80" relative="1" as="geometry">
            <mxPoint x="940" y="210" as="sourcePoint" />
            <mxPoint x="849" y="152" as="targetPoint" />
          </mxGeometry>
        </mxCell>
        <mxCell id="JB8tI0yH94NH3VG3KQCO-81" value="" style="html=1;verticalAlign=bottom;endArrow=block;curved=0;rounded=0;entryX=0.407;entryY=1.008;entryDx=0;entryDy=0;exitX=0.75;exitY=0;exitDx=0;exitDy=0;entryPerimeter=0;fontSize=16;" parent="1" source="JB8tI0yH94NH3VG3KQCO-22" target="JB8tI0yH94NH3VG3KQCO-77" edge="1">
          <mxGeometry width="80" relative="1" as="geometry">
            <mxPoint x="980" y="230" as="sourcePoint" />
            <mxPoint x="1020" y="120" as="targetPoint" />
          </mxGeometry>
        </mxCell>
        <mxCell id="1YwyQfuB1uYmzjiXLS0m-1" value="文件id" style="ellipse;whiteSpace=wrap;html=1;align=center;dashed=1;fontSize=16;" vertex="1" parent="1">
          <mxGeometry x="1230" y="150" width="100" height="40" as="geometry" />
        </mxCell>
        <mxCell id="1YwyQfuB1uYmzjiXLS0m-2" value="账号id" style="ellipse;whiteSpace=wrap;html=1;align=center;dashed=1;fontSize=16;" vertex="1" parent="1">
          <mxGeometry x="1370" y="150" width="100" height="40" as="geometry" />
        </mxCell>
        <mxCell id="1YwyQfuB1uYmzjiXLS0m-3" value="存储路径" style="ellipse;whiteSpace=wrap;html=1;align=center;dashed=1;fontSize=16;" vertex="1" parent="1">
          <mxGeometry x="1680" y="390" width="100" height="40" as="geometry" />
        </mxCell>
        <mxCell id="1YwyQfuB1uYmzjiXLS0m-4" value="文件id" style="ellipse;whiteSpace=wrap;html=1;align=center;dashed=1;fontSize=16;" vertex="1" parent="1">
          <mxGeometry x="1690" y="450" width="100" height="40" as="geometry" />
        </mxCell>
        <mxCell id="1YwyQfuB1uYmzjiXLS0m-5" value="唯一标识" style="ellipse;whiteSpace=wrap;html=1;align=center;dashed=1;fontSize=16;" vertex="1" parent="1">
          <mxGeometry x="1680" y="510" width="100" height="40" as="geometry" />
        </mxCell>
        <mxCell id="1YwyQfuB1uYmzjiXLS0m-6" value="账号id" style="ellipse;whiteSpace=wrap;html=1;align=center;dashed=1;fontSize=16;" vertex="1" parent="1">
          <mxGeometry x="1180" y="730" width="100" height="40" as="geometry" />
        </mxCell>
        <mxCell id="1YwyQfuB1uYmzjiXLS0m-7" value="上传id" style="ellipse;whiteSpace=wrap;html=1;align=center;dashed=1;fontSize=16;" vertex="1" parent="1">
          <mxGeometry x="1300" y="760" width="100" height="40" as="geometry" />
        </mxCell>
        <mxCell id="1YwyQfuB1uYmzjiXLS0m-8" value="唯一标识" style="ellipse;whiteSpace=wrap;html=1;align=center;dashed=1;fontSize=16;" vertex="1" parent="1">
          <mxGeometry x="1430" y="720" width="100" height="40" as="geometry" />
        </mxCell>
        <mxCell id="1YwyQfuB1uYmzjiXLS0m-9" value="分享id" style="ellipse;whiteSpace=wrap;html=1;align=center;dashed=1;fontSize=16;" vertex="1" parent="1">
          <mxGeometry x="540" y="700" width="100" height="40" as="geometry" />
        </mxCell>
        <mxCell id="1YwyQfuB1uYmzjiXLS0m-10" value="文件id" style="ellipse;whiteSpace=wrap;html=1;align=center;dashed=1;fontSize=16;" vertex="1" parent="1">
          <mxGeometry x="540" y="770" width="100" height="40" as="geometry" />
        </mxCell>
        <mxCell id="1YwyQfuB1uYmzjiXLS0m-11" value="分享id" style="ellipse;whiteSpace=wrap;html=1;align=center;dashed=1;fontSize=16;" vertex="1" parent="1">
          <mxGeometry x="530" y="390" width="100" height="40" as="geometry" />
        </mxCell>
        <mxCell id="1YwyQfuB1uYmzjiXLS0m-12" value="类型" style="ellipse;whiteSpace=wrap;html=1;align=center;dashed=1;fontSize=16;" vertex="1" parent="1">
          <mxGeometry x="500" y="460" width="100" height="40" as="geometry" />
        </mxCell>
        <mxCell id="1YwyQfuB1uYmzjiXLS0m-13" value="名称" style="ellipse;whiteSpace=wrap;html=1;align=center;dashed=1;fontSize=16;" vertex="1" parent="1">
          <mxGeometry x="530" y="530" width="100" height="40" as="geometry" />
        </mxCell>
        <mxCell id="1YwyQfuB1uYmzjiXLS0m-14" value="" style="html=1;verticalAlign=bottom;endArrow=block;curved=0;rounded=0;entryX=0.5;entryY=1;entryDx=0;entryDy=0;exitX=0.25;exitY=0;exitDx=0;exitDy=0;fontSize=16;" edge="1" parent="1" source="JB8tI0yH94NH3VG3KQCO-34" target="1YwyQfuB1uYmzjiXLS0m-1">
          <mxGeometry width="80" relative="1" as="geometry">
            <mxPoint x="1360" y="250" as="sourcePoint" />
            <mxPoint x="1150" y="200" as="targetPoint" />
          </mxGeometry>
        </mxCell>
        <mxCell id="1YwyQfuB1uYmzjiXLS0m-17" value="" style="html=1;verticalAlign=bottom;endArrow=block;curved=0;rounded=0;entryX=0.5;entryY=1;entryDx=0;entryDy=0;exitX=0.75;exitY=0;exitDx=0;exitDy=0;fontSize=16;" edge="1" parent="1" source="JB8tI0yH94NH3VG3KQCO-34" target="1YwyQfuB1uYmzjiXLS0m-2">
          <mxGeometry width="80" relative="1" as="geometry">
            <mxPoint x="1340" y="260" as="sourcePoint" />
            <mxPoint x="1290" y="200" as="targetPoint" />
          </mxGeometry>
        </mxCell>
        <mxCell id="1YwyQfuB1uYmzjiXLS0m-18" value="" style="html=1;verticalAlign=bottom;endArrow=block;curved=0;rounded=0;entryX=0;entryY=0.5;entryDx=0;entryDy=0;exitX=1;exitY=0.25;exitDx=0;exitDy=0;fontSize=16;" edge="1" parent="1" source="JB8tI0yH94NH3VG3KQCO-38" target="1YwyQfuB1uYmzjiXLS0m-3">
          <mxGeometry width="80" relative="1" as="geometry">
            <mxPoint x="1740" y="340" as="sourcePoint" />
            <mxPoint x="1690" y="280" as="targetPoint" />
          </mxGeometry>
        </mxCell>
        <mxCell id="1YwyQfuB1uYmzjiXLS0m-19" value="" style="html=1;verticalAlign=bottom;endArrow=block;curved=0;rounded=0;entryX=0;entryY=0.5;entryDx=0;entryDy=0;exitX=1;exitY=0.5;exitDx=0;exitDy=0;fontSize=16;" edge="1" parent="1" source="JB8tI0yH94NH3VG3KQCO-38" target="1YwyQfuB1uYmzjiXLS0m-4">
          <mxGeometry width="80" relative="1" as="geometry">
            <mxPoint x="1640" y="465" as="sourcePoint" />
            <mxPoint x="1690" y="420" as="targetPoint" />
          </mxGeometry>
        </mxCell>
        <mxCell id="1YwyQfuB1uYmzjiXLS0m-20" value="" style="html=1;verticalAlign=bottom;endArrow=block;curved=0;rounded=0;exitX=1;exitY=0.75;exitDx=0;exitDy=0;fontSize=16;" edge="1" parent="1" source="JB8tI0yH94NH3VG3KQCO-38" target="1YwyQfuB1uYmzjiXLS0m-5">
          <mxGeometry width="80" relative="1" as="geometry">
            <mxPoint x="1640" y="480" as="sourcePoint" />
            <mxPoint x="1700" y="480" as="targetPoint" />
          </mxGeometry>
        </mxCell>
        <mxCell id="1YwyQfuB1uYmzjiXLS0m-21" value="" style="html=1;verticalAlign=bottom;endArrow=block;curved=0;rounded=0;exitX=0.75;exitY=1;exitDx=0;exitDy=0;entryX=0;entryY=0;entryDx=0;entryDy=0;fontSize=16;" edge="1" parent="1" source="JB8tI0yH94NH3VG3KQCO-54" target="1YwyQfuB1uYmzjiXLS0m-8">
          <mxGeometry width="80" relative="1" as="geometry">
            <mxPoint x="1370" y="690" as="sourcePoint" />
            <mxPoint x="1437" y="720" as="targetPoint" />
          </mxGeometry>
        </mxCell>
        <mxCell id="1YwyQfuB1uYmzjiXLS0m-24" value="" style="html=1;verticalAlign=bottom;endArrow=block;curved=0;rounded=0;exitX=0.5;exitY=1;exitDx=0;exitDy=0;entryX=0.5;entryY=0;entryDx=0;entryDy=0;fontSize=16;" edge="1" parent="1" source="JB8tI0yH94NH3VG3KQCO-54" target="1YwyQfuB1uYmzjiXLS0m-7">
          <mxGeometry width="80" relative="1" as="geometry">
            <mxPoint x="1350" y="700" as="sourcePoint" />
            <mxPoint x="1405" y="756" as="targetPoint" />
          </mxGeometry>
        </mxCell>
        <mxCell id="1YwyQfuB1uYmzjiXLS0m-25" value="" style="html=1;verticalAlign=bottom;endArrow=block;curved=0;rounded=0;exitX=0.25;exitY=1;exitDx=0;exitDy=0;entryX=0.5;entryY=0;entryDx=0;entryDy=0;fontSize=16;" edge="1" parent="1" source="JB8tI0yH94NH3VG3KQCO-54" target="1YwyQfuB1uYmzjiXLS0m-6">
          <mxGeometry width="80" relative="1" as="geometry">
            <mxPoint x="1320" y="690" as="sourcePoint" />
            <mxPoint x="1310" y="780" as="targetPoint" />
          </mxGeometry>
        </mxCell>
        <mxCell id="1YwyQfuB1uYmzjiXLS0m-26" value="" style="html=1;verticalAlign=bottom;endArrow=block;curved=0;rounded=0;exitX=-0.017;exitY=0.372;exitDx=0;exitDy=0;entryX=1;entryY=0.5;entryDx=0;entryDy=0;exitPerimeter=0;fontSize=16;" edge="1" parent="1" source="JB8tI0yH94NH3VG3KQCO-66" target="1YwyQfuB1uYmzjiXLS0m-9">
          <mxGeometry width="80" relative="1" as="geometry">
            <mxPoint x="850" y="720" as="sourcePoint" />
            <mxPoint x="840" y="810" as="targetPoint" />
          </mxGeometry>
        </mxCell>
        <mxCell id="1YwyQfuB1uYmzjiXLS0m-27" value="" style="html=1;verticalAlign=bottom;endArrow=block;curved=0;rounded=0;exitX=0;exitY=0.75;exitDx=0;exitDy=0;entryX=1.02;entryY=0.308;entryDx=0;entryDy=0;entryPerimeter=0;fontSize=16;" edge="1" parent="1" source="JB8tI0yH94NH3VG3KQCO-66" target="1YwyQfuB1uYmzjiXLS0m-10">
          <mxGeometry width="80" relative="1" as="geometry">
            <mxPoint x="678" y="752" as="sourcePoint" />
            <mxPoint x="650" y="730" as="targetPoint" />
          </mxGeometry>
        </mxCell>
        <mxCell id="1YwyQfuB1uYmzjiXLS0m-28" value="" style="html=1;verticalAlign=bottom;endArrow=block;curved=0;rounded=0;exitX=0;exitY=0.75;exitDx=0;exitDy=0;entryX=1;entryY=0.5;entryDx=0;entryDy=0;fontSize=16;" edge="1" parent="1" source="JB8tI0yH94NH3VG3KQCO-62" target="1YwyQfuB1uYmzjiXLS0m-13">
          <mxGeometry width="80" relative="1" as="geometry">
            <mxPoint x="678" y="752" as="sourcePoint" />
            <mxPoint x="650" y="730" as="targetPoint" />
          </mxGeometry>
        </mxCell>
        <mxCell id="1YwyQfuB1uYmzjiXLS0m-29" value="" style="html=1;verticalAlign=bottom;endArrow=block;curved=0;rounded=0;exitX=0;exitY=0.5;exitDx=0;exitDy=0;entryX=1;entryY=0.5;entryDx=0;entryDy=0;fontSize=16;" edge="1" parent="1" source="JB8tI0yH94NH3VG3KQCO-62" target="1YwyQfuB1uYmzjiXLS0m-12">
          <mxGeometry width="80" relative="1" as="geometry">
            <mxPoint x="671" y="495" as="sourcePoint" />
            <mxPoint x="640" y="560" as="targetPoint" />
          </mxGeometry>
        </mxCell>
        <mxCell id="1YwyQfuB1uYmzjiXLS0m-30" value="" style="html=1;verticalAlign=bottom;endArrow=block;curved=0;rounded=0;exitX=0;exitY=0.25;exitDx=0;exitDy=0;entryX=1;entryY=1;entryDx=0;entryDy=0;fontSize=16;" edge="1" parent="1" source="JB8tI0yH94NH3VG3KQCO-62" target="1YwyQfuB1uYmzjiXLS0m-11">
          <mxGeometry width="80" relative="1" as="geometry">
            <mxPoint x="671" y="480" as="sourcePoint" />
            <mxPoint x="610" y="490" as="targetPoint" />
          </mxGeometry>
        </mxCell>
      </root>
    </mxGraphModel>
  </diagram>
</mxfile>
